<svg width="115" height="35" viewBox="0 0 115 35" fill="none" xmlns="http://www.w3.org/2000/svg">
<g clip-path="url(#clip0_245_924)">
<path d="M56.9756 35V34.9454C57.0308 34.8726 57.132 34.8316 57.2194 34.8453C57.638 34.8316 58.0382 34.8316 58.4522 34.8453C58.5396 34.8453 58.6408 34.8726 58.696 34.9454V35H56.9756Z" fill="white"/>
<path d="M58.7006 34.9454C58.1256 34.9317 57.5506 34.9317 56.9756 34.9454C56.1844 34.9044 55.3978 34.8726 54.6066 34.8179C52.509 34.6632 50.4298 34.3492 48.392 33.8804C41.3448 32.2601 35.1532 29.0104 29.7574 24.277C29.256 23.8355 28.7822 23.3804 28.2946 22.9298C28.1796 22.8296 28.0784 22.6886 28.0232 22.5475C27.9358 22.3472 27.9818 22.1333 28.1244 21.9785C28.267 21.8238 28.497 21.7646 28.6994 21.8511C28.8282 21.9057 28.957 21.9649 29.072 22.0377C34.224 25.1918 39.8544 27.4902 45.7562 28.8557C47.7388 29.3108 49.7352 29.6658 51.7408 29.9207C54.625 30.2757 57.5414 30.4031 60.4394 30.303C62.0034 30.262 63.5536 30.1164 65.1038 29.9207C68.7194 29.4655 72.2982 28.6554 75.7574 27.5221C77.579 26.9259 79.3592 26.2432 81.098 25.4467C81.3556 25.3056 81.673 25.2601 81.9582 25.3329C82.432 25.4467 82.7172 25.9291 82.6022 26.3979C82.5884 26.4525 82.5608 26.5254 82.5286 26.5845C82.4136 26.7984 82.2572 26.9805 82.0548 27.1261C80.4034 28.4051 78.6232 29.5247 76.7418 30.4623C73.1952 32.2373 69.4048 33.5026 65.4994 34.2263C63.25 34.6177 60.9822 34.8589 58.7006 34.9454ZM37.4348 6.1489C37.7936 5.93498 38.1662 5.70741 38.5526 5.51171C39.5554 5.00195 40.6778 4.74252 41.8094 4.80169C42.6282 4.84265 43.3734 5.07022 43.9484 5.66645C44.4958 6.22172 44.6936 6.90442 44.7534 7.64174C44.7672 7.79649 44.7672 7.95579 44.7672 8.12419V15.4837C44.7672 16.1209 44.6798 16.2074 44.0358 16.2074H42.2832C42.1682 16.2074 42.0532 16.2074 41.9382 16.1938C41.768 16.1801 41.6208 16.039 41.5932 15.8661C41.5656 15.7113 41.5656 15.552 41.5656 15.3973V8.82055C41.5794 8.55202 41.5518 8.29714 41.4782 8.03771C41.3632 7.59623 40.963 7.28674 40.503 7.25488C39.6566 7.20026 38.8102 7.36866 38.0328 7.72367C37.9178 7.75098 37.8442 7.86476 37.8626 7.97855V15.4519C37.8626 15.593 37.8626 15.7204 37.835 15.8661C37.835 16.0663 37.6786 16.2074 37.4762 16.2074C37.26 16.2211 37.0438 16.2211 36.8138 16.2211H35.2912C34.7622 16.2211 34.6472 16.0936 34.6472 15.5657V8.84786C34.6472 8.60663 34.6334 8.35176 34.5736 8.11053C34.4724 7.62809 34.0584 7.28674 33.5708 7.25943C32.7106 7.20481 31.832 7.37321 31.0592 7.74187C30.9442 7.76918 30.8706 7.89662 30.9028 8.01041V15.5793C30.9028 16.1027 30.7878 16.2165 30.2588 16.2165H28.336C27.8346 16.2165 27.7058 16.0754 27.7058 15.593V5.73927C27.7058 5.62549 27.7196 5.51171 27.7472 5.39792C27.8024 5.22952 27.9772 5.12939 28.1474 5.12939H29.9414C30.199 5.12939 30.36 5.28414 30.4428 5.52536C30.5164 5.72562 30.5578 5.90767 30.6314 6.12159C30.774 6.12159 30.8614 6.02146 30.9626 5.96684C31.7538 5.4844 32.5864 5.07022 33.5202 4.90182C34.2378 4.76073 34.9554 4.76073 35.673 4.90182C36.3492 5.04291 36.9518 5.44344 37.3382 6.0078C37.3658 6.04877 37.3934 6.08063 37.4256 6.10793C37.4072 6.12159 37.421 6.12159 37.4348 6.1489Z" fill="white"/>
<path d="M67.1968 13.2263C67.2842 12.9441 67.367 12.671 67.4544 12.3888C68.1168 10.1859 68.7746 8.00129 69.437 5.79843L69.5244 5.54355C69.598 5.28867 69.8418 5.12938 70.0994 5.12938H72.2798C72.8272 5.12938 72.9422 5.28412 72.7536 5.79843L71.8934 8.0559C70.932 10.5273 69.9706 13.0123 69.0092 15.4837C68.9816 15.5702 68.9356 15.6521 68.908 15.7386C68.8068 16.039 68.5078 16.2347 68.1904 16.2074C67.5602 16.1937 66.9254 16.1937 66.2952 16.2074C65.849 16.2211 65.5914 16.0208 65.435 15.6248C65.0762 14.6872 64.7036 13.736 64.3448 12.7984C63.4846 10.5683 62.606 8.33809 61.7458 6.09427C61.6584 5.92587 61.6032 5.72561 61.5572 5.539C61.5158 5.25681 61.6124 5.11117 61.9022 5.11117C62.721 5.09752 63.5398 5.11117 64.3448 5.11117C64.6898 5.11117 64.8462 5.33874 64.9336 5.63458C65.09 6.17619 65.251 6.72691 65.4212 7.26852C66.01 9.24381 66.585 11.2328 67.1738 13.2081C67.1554 13.2263 67.1692 13.2263 67.1968 13.2263Z" fill="white"/>
<path d="M16.2196 6.69049C16.3208 6.66318 16.4082 6.60402 16.4634 6.52209C16.721 6.26721 16.9924 6.02599 17.2822 5.79842C18.0274 5.2295 18.9612 4.94732 19.895 5.01559C20.2676 5.02924 20.3964 5.14303 20.424 5.49803C20.4516 5.98048 20.4378 6.47658 20.4378 6.95902C20.4516 7.15928 20.4378 7.34134 20.4102 7.5416C20.355 7.79647 20.2538 7.8966 19.9916 7.92391C19.7892 7.93757 19.6052 7.92391 19.4028 7.91026C18.4414 7.82378 17.5076 8.01039 16.6014 8.30623C16.399 8.37905 16.399 8.52014 16.399 8.67489V15.4928C16.399 15.6203 16.399 15.7341 16.3852 15.8615C16.3714 16.0481 16.2288 16.1892 16.0402 16.1892C15.939 16.2028 15.824 16.2028 15.7228 16.2028H13.8552C13.754 16.2028 13.639 16.2028 13.5378 16.1892C13.3492 16.1755 13.2066 16.0208 13.1928 15.8342C13.179 15.7204 13.179 15.6066 13.179 15.4928V5.83939C13.179 5.18399 13.2526 5.11572 13.9104 5.11572H15.2904C15.663 5.11572 15.8378 5.24316 15.9344 5.59816C16.031 5.95317 16.1322 6.30818 16.2196 6.69049ZM83.3749 21.0956C84.3225 21.1229 85.2563 21.182 86.1764 21.4233C86.434 21.4961 86.6777 21.578 86.9215 21.6918C87.2527 21.8192 87.4689 22.1333 87.5104 22.4746C87.5656 22.8706 87.584 23.2848 87.5518 23.6944C87.3632 26.1248 86.6041 28.4688 85.3391 30.5533C84.8792 31.3043 84.3179 31.987 83.674 32.5832C83.5452 32.7106 83.3887 32.8108 83.214 32.8654C82.9426 32.9382 82.7677 32.7926 82.754 32.524C82.7677 32.3829 82.7953 32.2419 82.8551 32.0962C83.3565 30.7627 83.8441 29.4382 84.2351 28.0637C84.4651 27.3127 84.6216 26.5435 84.7228 25.7607C84.7504 25.4785 84.7641 25.1918 84.7365 24.9096C84.7227 24.4272 84.4053 24.013 83.9315 23.8719C83.4854 23.7308 83.0253 23.6443 82.5516 23.617C81.2313 23.5624 79.9112 23.617 78.6048 23.7854L76.866 23.9993C76.6773 24.013 76.5071 23.9993 76.4059 23.8309C76.3047 23.6625 76.3507 23.4896 76.4473 23.3212C76.5624 23.1664 76.705 23.0208 76.8798 22.9252C77.9424 22.1742 79.1338 21.7191 80.3988 21.4187C81.3831 21.223 82.3721 21.1229 83.3749 21.0956Z" fill="white"/>
<path d="M77.3629 10.6684V15.7841C77.3353 16.0663 77.2065 16.1983 76.9167 16.212C76.1393 16.2256 75.3803 16.2256 74.6075 16.212C74.3223 16.212 74.1889 16.0709 74.1613 15.7978C74.1475 15.7113 74.1475 15.6112 74.1475 15.5293V5.69832C74.1613 5.25683 74.2763 5.12939 74.7225 5.12939H76.7879C77.2341 5.12939 77.3629 5.25683 77.3629 5.69832V10.6684Z" fill="white"/>
<path d="M21.8178 10.6411V5.5982C21.8316 5.25684 21.9604 5.12941 22.3054 5.11575C23.0506 5.1021 23.8004 5.1021 24.5456 5.11575C24.8768 5.11575 24.978 5.21588 25.0056 5.54358C25.0194 5.67102 25.0194 5.7848 25.0194 5.91224V15.3745C25.0194 15.5293 25.0056 15.6886 24.9918 15.8433C24.978 16.0299 24.8354 16.1574 24.6468 16.171C24.5594 16.1847 24.4904 16.1847 24.403 16.1847H22.4066C22.333 16.1847 22.2778 16.1847 22.2042 16.171C22.0018 16.1574 21.8316 16.0026 21.8178 15.8024C21.804 15.6886 21.804 15.5748 21.804 15.461C21.8178 13.8771 21.8178 12.2568 21.8178 10.6411ZM23.483 0.0273257C23.713 0.0136716 23.943 0.0546338 24.1592 0.127456C24.9366 0.382332 25.3368 1.05138 25.2632 1.91614C25.208 2.65346 24.6468 3.24969 23.9016 3.36348C23.5842 3.41809 23.2576 3.41809 22.9402 3.36348C22.1214 3.20873 21.5188 2.6125 21.5786 1.58844C21.6614 0.582592 22.333 0.0273257 23.483 0.0273257Z" fill="white"/>
<path d="M75.7665 0.027322C76.0517 1.37892e-05 76.3415 0.0546302 76.6129 0.168414C77.1741 0.382328 77.5605 0.892081 77.5881 1.48831C77.7031 2.7809 76.8291 3.4363 75.6653 3.40444C75.5089 3.40444 75.3479 3.37713 75.1915 3.34982C74.3037 3.1359 73.8437 2.4532 73.9265 1.47466C74.0001 0.691821 74.6165 0.109247 75.4629 0.0409761C75.5687 0.027322 75.6699 0.0136679 75.7665 0.027322Z" fill="white"/>
<path d="M11.063 9.47595C11.0078 8.73863 10.8054 8.01496 10.5018 7.34591C9.91298 6.12615 9.00678 5.22953 7.63138 4.91548C6.05358 4.57413 4.63218 4.91548 3.33958 5.86672C3.25218 5.9532 3.15098 6.02147 3.03598 6.08063C3.00838 6.06698 2.98078 6.05333 2.98078 6.03967C2.93938 5.89858 2.90718 5.75749 2.86578 5.61184C2.75078 5.25684 2.60818 5.1294 2.22178 5.1294C1.78938 5.1294 1.34778 5.14305 0.915376 5.1294C0.584176 5.11574 0.285176 5.15671 0.0551758 5.41158C0.0551758 10.3817 0.0551758 15.37 0.0689758 20.3264C0.257576 20.6268 0.542776 20.6814 0.873976 20.6678C1.38918 20.6541 1.90898 20.6678 2.42418 20.6678C3.33038 20.6678 3.33038 20.6678 3.33038 19.7893V15.7432C3.33038 15.6431 3.28898 15.5293 3.38558 15.4428C4.10318 15.9981 4.97718 16.3394 5.88338 16.4213C7.14838 16.5488 8.29378 16.2347 9.25518 15.3836C9.95898 14.7464 10.4742 13.9226 10.7502 13.0124C11.1366 11.8472 11.1642 10.6684 11.063 9.47595ZM7.63138 12.4161C7.53018 12.8576 7.30018 13.2536 6.96898 13.554C6.59638 13.868 6.13638 14.0501 5.64878 14.0501C4.91738 14.091 4.19978 13.9363 3.55118 13.5949C3.39478 13.5221 3.29358 13.3674 3.30738 13.199V10.6274C3.30738 9.77634 3.32118 8.92069 3.30738 8.06958C3.29358 7.86932 3.40858 7.70092 3.59258 7.6281C4.38378 7.25944 5.20258 7.08649 6.06278 7.25944C6.66538 7.34591 7.18058 7.72823 7.42438 8.28349C7.64058 8.73863 7.76938 9.23473 7.79698 9.73083C7.89358 10.6411 7.89358 11.5468 7.63138 12.4161Z" fill="white"/>
<path d="M114.917 11.6925C114.917 11.6743 114.917 11.6743 114.917 11.6925V11.6925ZM114.931 9.78544V9.84006C114.876 9.78544 114.844 9.69896 114.876 9.62614V9.51236C114.876 9.51236 114.876 9.4987 114.89 9.4987H114.876V9.35761H114.903C114.903 9.34396 114.89 9.34396 114.89 9.3303C114.862 9.06177 114.802 8.78869 114.733 8.53381C114.204 6.65865 113.008 5.42523 111.072 4.93823C110.166 4.72432 109.25 4.69701 108.33 4.8381C106.393 5.12029 105 6.14435 104.323 7.96489C103.661 9.69896 103.679 11.6014 104.337 13.3355C104.912 14.9103 106.062 15.907 107.709 16.3166C108.583 16.5306 109.503 16.5852 110.409 16.4577C113.422 16.1027 114.674 13.8453 114.876 11.8836H114.862V11.6834C114.848 11.5969 114.834 11.5286 114.917 11.4694V11.4968C114.917 11.4831 114.931 11.4558 114.945 11.4421V9.8082C114.945 9.79909 114.931 9.79909 114.931 9.78544ZM111.486 12.4844C111.398 12.7848 111.269 13.0533 111.085 13.3082C110.768 13.7497 110.267 14.0319 109.724 14.0774C109.453 14.1047 109.176 14.1047 108.905 14.0501C108.302 13.9363 107.801 13.5403 107.557 12.985C107.341 12.5436 107.212 12.0611 107.171 11.5787C107.097 10.7412 107.083 9.90377 107.286 9.07998C107.36 8.75228 107.502 8.42458 107.672 8.1424C107.99 7.63264 108.532 7.30494 109.135 7.26398C109.406 7.23667 109.683 7.23667 109.954 7.29129C110.529 7.40507 111.003 7.77374 111.26 8.30169C111.504 8.79779 111.647 9.35306 111.679 9.90833C111.693 10.1632 111.707 10.4181 111.693 10.6775C111.73 11.2919 111.661 11.9018 111.486 12.4844ZM89.7645 0.127441H87.7681C87.2207 0.127441 87.1241 0.227571 87.1241 0.764633V5.37061C87.1241 5.47074 87.1655 5.57087 87.0965 5.671C86.9677 5.65735 86.8941 5.57087 86.7929 5.51626C85.2979 4.6515 83.7339 4.4922 82.1561 5.21587C81.0521 5.72562 80.3621 6.64955 79.9159 7.74643C79.4835 8.79779 79.3869 9.90377 79.4145 11.028C79.4145 12.0793 79.6583 13.117 80.1321 14.0546C80.6795 15.0923 81.4661 15.8888 82.6161 16.2302C84.1801 16.7126 85.6475 16.4714 86.9815 15.4929C87.0827 15.4382 87.1379 15.3381 87.2667 15.3062C87.3403 15.461 87.3955 15.6339 87.4231 15.8023C87.4783 16.0299 87.6807 16.1847 87.9245 16.1847H88.2695C88.7847 16.1847 89.2907 16.1983 89.7921 16.1847C90.1923 16.1847 90.3073 16.0572 90.3211 15.643V0.669054C90.3119 0.227571 90.1969 0.127441 89.7645 0.127441ZM87.1379 10.5819V13.1671C87.1655 13.3355 87.0643 13.4948 86.9079 13.5631C86.2179 13.9454 85.4313 14.1047 84.6539 13.9909C83.9915 13.9181 83.4211 13.5221 83.1175 12.9395C82.8875 12.4844 82.7587 12.002 82.7173 11.5059C82.6023 10.6092 82.6759 9.70352 82.8875 8.8342C82.9611 8.59298 83.0439 8.36541 83.1727 8.13785C83.4763 7.58258 84.0467 7.22757 84.6815 7.18661C85.4405 7.11379 86.2041 7.25943 86.8941 7.56892C87.0643 7.62354 87.1655 7.79649 87.1517 7.9831C87.1241 8.86151 87.1379 9.71717 87.1379 10.5819Z" fill="white"/>
<path d="M50.0112 11.5605C51.0876 11.7607 52.1916 11.7744 53.268 11.6015C53.8982 11.515 54.5008 11.3329 55.062 11.0325C55.706 10.6639 56.1798 10.1541 56.3822 9.43955C56.8836 7.65087 56.1108 5.84397 54.2294 5.17948C53.3094 4.87909 52.3342 4.78351 51.3728 4.91094C49.105 5.16582 47.6238 6.40379 46.9522 8.54749C46.4784 10.0085 46.5336 11.5013 46.9246 12.9805C47.426 14.8693 48.691 15.9935 50.6 16.3895C51.6902 16.6307 52.7988 16.5897 53.889 16.4168C54.464 16.3167 55.039 16.1756 55.5818 15.9617C55.913 15.8342 56.0832 15.634 56.0694 15.2653C56.0556 14.9239 56.0694 14.5689 56.0694 14.2139C56.0694 13.7861 55.8992 13.6587 55.4806 13.7588C55.062 13.8589 54.6618 13.9454 54.2478 14.0273C53.36 14.2139 52.44 14.2139 51.5476 14.0546C50.3286 13.8134 49.5374 12.7757 49.611 11.4968C49.7398 11.5195 49.8824 11.5332 50.0112 11.5605ZM49.6524 9.38949C49.6938 9.04814 49.795 8.72044 49.9238 8.41094C50.3562 7.37323 51.2578 7.01823 52.1778 7.07739C52.4354 7.09105 52.693 7.15022 52.9368 7.2458C53.3094 7.40054 53.5532 7.74189 53.5992 8.14241C53.6406 8.38364 53.6268 8.63851 53.5578 8.87974C53.3876 9.38949 52.969 9.6034 52.4676 9.70353C52.164 9.77635 51.8512 9.80366 51.5338 9.77635C50.9726 9.77635 50.3976 9.73539 49.841 9.64892C49.6248 9.61706 49.6248 9.61706 49.6524 9.38949Z" fill="white"/>
<path d="M98.4355 11.7061C99.2681 11.6515 100.101 11.4922 100.846 11.0962C101.605 10.7276 102.138 10.0312 102.295 9.2074C102.396 8.69764 102.396 8.15603 102.281 7.64628C101.977 6.36735 101.163 5.57086 99.9259 5.16123C99.2359 4.94732 98.5045 4.86084 97.7869 4.8927C95.3765 4.94732 93.5365 6.15798 92.7913 8.5429C92.2899 10.1177 92.3589 11.7243 92.8465 13.3036C93.3479 14.9239 94.4979 15.9025 96.1355 16.3439C96.8393 16.5123 97.5707 16.5852 98.2883 16.5579C99.3371 16.5442 100.386 16.3439 101.375 15.9753C101.793 15.8205 101.89 15.6749 101.89 15.238V14.2139C101.876 13.7997 101.701 13.6586 101.287 13.7588C100.97 13.8452 100.671 13.9135 100.354 13.9863C99.3923 14.2139 98.3849 14.2549 97.4097 14.0865C96.4345 13.8999 95.7721 13.3491 95.5145 12.3797C95.4409 12.0975 95.3857 11.8108 95.3581 11.5149C95.4317 11.5149 95.5007 11.5149 95.5605 11.5422C96.5127 11.7061 97.4741 11.7744 98.4355 11.7061ZM95.4363 9.43041C95.5375 8.87515 95.6663 8.33809 96.0113 7.88295C96.5403 7.18659 97.2763 6.98633 98.1089 7.07281C98.1825 7.07281 98.2377 7.10012 98.3113 7.10012C99.3141 7.25486 99.5625 8.05135 99.3739 8.82053C99.2313 9.38945 98.7575 9.60337 98.2239 9.69895C97.9387 9.75356 97.6351 9.78542 97.3361 9.77177C96.7473 9.75811 96.1723 9.71715 95.5973 9.63067C95.4639 9.61702 95.4087 9.55785 95.4363 9.43041Z" fill="white"/>
</g>
<defs>
<clipPath id="clip0_245_924">
<rect width="115" height="35" fill="white"/>
</clipPath>
</defs>
</svg>
