<svg width="18" height="16" viewBox="0 0 18 16" fill="none" xmlns="http://www.w3.org/2000/svg">
<path d="M8.99992 1.9C9.29868 1.9 9.59451 1.95432 9.87052 2.05985C10.1465 2.16539 10.3973 2.32007 10.6086 2.51508C10.8198 2.71008 10.9874 2.94158 11.1017 3.19636C11.2161 3.45115 11.2749 3.72422 11.2749 4C11.2749 4.27578 11.2161 4.54885 11.1017 4.80364C10.9874 5.05842 10.8198 5.28992 10.6086 5.48492C10.3973 5.67993 10.1465 5.83461 9.87052 5.94015C9.59451 6.04568 9.29868 6.1 8.99992 6.1C8.39655 6.1 7.8179 5.87875 7.39125 5.48492C6.9646 5.0911 6.72492 4.55695 6.72492 4C6.72492 3.44305 6.9646 2.9089 7.39125 2.51508C7.8179 2.12125 8.39655 1.9 8.99992 1.9ZM8.99992 10.9C12.2174 10.9 15.6083 12.36 15.6083 13V14.1H2.39159V13C2.39159 12.36 5.78242 10.9 8.99992 10.9ZM8.99992 0C6.60575 0 4.66658 1.79 4.66658 4C4.66658 6.21 6.60575 8 8.99992 8C11.3941 8 13.3333 6.21 13.3333 4C13.3333 1.79 11.3941 0 8.99992 0ZM8.99992 9C6.10742 9 0.333252 10.34 0.333252 13V15C0.333252 15.55 0.820752 16 1.41659 16H16.5833C17.1791 16 17.6666 15.55 17.6666 15V13C17.6666 10.34 11.8924 9 8.99992 9Z" fill="#AFBBC6"/>
</svg>
